<?xml version="1.0" encoding="UTF-8" standalone="no"?>
<!-- Created with Inkscape (http://www.inkscape.org/) -->

<svg
   width="512"
   height="512"
   viewBox="0 0 512 512"
   version="1.1"
   id="svg5"
   xml:space="preserve"
   xmlns="http://www.w3.org/2000/svg"
   xmlns:svg="http://www.w3.org/2000/svg"><defs
     id="defs2" /><g
     id="layer1"><g
       id="g12684"
       transform="translate(8.6779699,-16.933619)"><path
         id="path354"
         style="opacity:1;fill:#fdd35a;fill-opacity:1;stroke:#000000;stroke-width:16.7437;stroke-dasharray:none;stroke-opacity:1"
         d="M 176.40942,74.461347 A 214.55578,219.40586 67.662025 0 0 41.636859,248.34043 c -2.672147,1.96038 -5.235479,3.8946 -7.653976,5.79202 -10.937395,8.58091 -23.135213,30.07466 -11.159682,49.4142 3.195523,5.16051 10.887474,12.00725 20.895515,13.49238 a 214.55578,219.40586 67.662025 0 0 11.296263,39.26771 214.55578,219.40586 67.662025 0 0 284.486561,115.06475 214.55578,219.40586 67.662025 0 0 121.39528,-281.84338 214.55578,219.40586 67.662025 0 0 -22.33116,-40.6826 c 3.85634,-8.43836 2.38631,-19.27581 -1.01273,-25.43829 -6.19165,-11.2254 -25.22169,-17.43871 -37.99977,-16.94359 -0.0917,0.003 -0.19296,0.0142 -0.28485,0.0181 A 214.55578,219.40586 67.662025 0 0 176.40942,74.461347 Z" /><path
         style="opacity:1;fill:none;fill-opacity:1;stroke:#000000;stroke-width:16.7437;stroke-linecap:round;stroke-dasharray:none"
         d="m 177.47924,249.96251 c 0,0 -66.15305,35.45579 -115.147129,63.28165 C 43.705825,323.82285 27.808644,311.5974 22.823653,303.54704 10.848109,284.20749 23.04548,262.71245 33.982888,254.13155 71.190119,224.94072 139.5179,187.70812 205.02722,160.62761 c 65.76285,-27.18533 144.68991,-52.23202 194.52641,-54.16304 12.77809,-0.49511 31.80697,5.71764 37.99861,16.94305 5.3482,9.69625 5.97763,30.99202 -11.52461,36.25053 -54.05135,16.23963 -149.92682,49.52634 -149.92682,49.52634"
         id="path1588" /><circle
         style="opacity:1;fill:#000000;fill-opacity:1;stroke:#000000;stroke-width:16.7437;stroke-linecap:round;stroke-dasharray:none;stroke-opacity:1"
         id="path3978"
         cx="132.00285"
         cy="401.16202"
         r="45.270397"
         transform="rotate(-22.337975)" /><path
         style="opacity:1;fill:#000000;fill-opacity:1;stroke:none;stroke-width:16.7437;stroke-linecap:round;stroke-dasharray:none;stroke-opacity:1"
         d="m 271.54012,366.37332 c 8.86987,41.13795 33.50975,78.09644 55.64676,110.65753 l 28.30523,-14.03399 C 335.03276,433.17411 310.0494,404.75093 301.99789,357.62433 Z"
         id="path3980" /></g></g></svg>
