<?xml version="1.0" standalone="no"?>
<!DOCTYPE svg PUBLIC "-//W3C//DTD SVG 20010904//EN"
 "http://www.w3.org/TR/2001/REC-SVG-20010904/DTD/svg10.dtd">
<svg version="1.0" xmlns="http://www.w3.org/2000/svg"
 width="700.000000pt" height="700.000000pt" viewBox="0 0 700.000000 700.000000"
 preserveAspectRatio="xMidYMid meet">
<metadata>
Created by potrace 1.14, written by Peter Selinger 2001-2017
</metadata>
<g transform="translate(0.000000,700.000000) scale(0.100000,-0.100000)"
fill="#000000" stroke="none">
<path d="M3538 6555 c-2 -2 -46 -5 -98 -9 -52 -3 -106 -8 -120 -10 -14 -3 -47
-7 -75 -11 -27 -3 -57 -8 -65 -10 -8 -2 -32 -6 -52 -9 -21 -3 -57 -10 -80 -15
-24 -6 -58 -13 -77 -16 -19 -3 -37 -8 -41 -10 -3 -2 -17 -6 -31 -8 -49 -9
-279 -85 -382 -126 -386 -154 -748 -392 -1047 -691 -259 -258 -435 -500 -595
-818 -148 -295 -220 -517 -292 -902 -2 -13 -5 -25 -6 -25 -1 0 -28 -21 -60
-45 -114 -85 -219 -250 -252 -394 -19 -80 -18 -208 1 -280 39 -148 142 -274
277 -341 l75 -37 22 -92 c32 -132 101 -336 154 -454 76 -173 224 -441 247
-450 5 -2 9 -8 9 -14 0 -5 9 -22 21 -36 32 -42 73 -98 89 -122 8 -12 20 -28
25 -34 6 -6 49 -57 98 -112 396 -459 939 -790 1552 -946 128 -32 126 -32 195
-43 25 -4 54 -9 65 -11 227 -45 688 -52 921 -14 32 6 77 12 99 15 82 12 166
30 318 72 878 236 1626 856 2012 1666 119 252 209 522 251 757 2 14 7 36 9 50
3 14 8 43 11 65 3 22 7 51 9 65 27 169 27 648 0 780 -3 14 -7 43 -10 65 -43
348 -217 809 -432 1144 -35 56 -40 68 -32 95 5 17 9 65 9 106 0 205 -94 356
-280 447 -118 57 -243 93 -327 93 -28 0 -50 10 -92 43 -60 47 -217 154 -266
181 -16 9 -46 26 -65 38 -40 24 -224 117 -290 146 -236 105 -544 192 -802 227
-152 21 -239 27 -405 30 -106 1 -194 1 -195 0z"/>
</g>
</svg>
